<?xml version="1.0" standalone="no"?>
<!DOCTYPE svg PUBLIC "-//W3C//DTD SVG 20010904//EN"
 "http://www.w3.org/TR/2001/REC-SVG-20010904/DTD/svg10.dtd">
<svg version="1.0" xmlns="http://www.w3.org/2000/svg"
 width="1797.000000pt" height="1797.000000pt" viewBox="0 0 1797.000000 1797.000000"
 preserveAspectRatio="xMidYMid meet">
<metadata>
Created by potrace 1.14, written by Peter Selinger 2001-2017
</metadata>
<g transform="translate(0.000000,1797.000000) scale(0.100000,-0.100000)"
fill="#000000" stroke="none">
<path d="M8385 14029 c-2514 -94 -4872 -790 -6437 -1902 -484 -344 -915 -749
-1215 -1145 -400 -525 -623 -1037 -709 -1627 -25 -168 -25 -572 0 -740 53
-361 151 -676 312 -996 407 -815 1173 -1561 2220 -2164 1596 -920 3814 -1478
6014 -1513 1085 -18 1804 24 2695 154 1994 293 3785 982 4990 1919 277 215
579 497 786 733 446 508 746 1074 863 1627 50 238 60 343 60 610 0 267 -10
372 -60 610 -230 1088 -1118 2130 -2490 2920 -1436 828 -3325 1351 -5374 1490
-504 34 -1147 43 -1655 24z m763 -1208 c-3 -8 -133 -207 -496 -761 l-187 -285
-43 -3 c-23 -2 -42 -1 -42 3 0 9 111 180 538 833 l146 222 44 0 c24 0 42 -4
40 -9z m3733 -20 c22 -27 14 -66 -40 -186 l-40 -90 -80 -3 c-45 -2 -81 -1 -81
2 0 3 16 39 35 82 41 90 42 96 13 92 -17 -2 -31 -25 -66 -111 l-45 -109 61
-55 c79 -70 79 -81 6 -253 -116 -269 -142 -294 -313 -295 -186 0 -190 16 -69
283 l50 112 79 0 c44 0 79 -4 79 -8 0 -5 -22 -57 -50 -118 -54 -118 -61 -147
-32 -142 18 3 58 78 108 201 l28 68 -68 64 c-66 61 -68 65 -62 99 9 46 111
271 143 314 50 67 97 83 232 78 82 -3 97 -6 112 -25z m-7692 3 c21 -15 23 -23
18 -63 -6 -54 -102 -275 -142 -326 -14 -19 -39 -42 -55 -50 -29 -15 -29 -15
-12 -44 15 -27 15 -33 0 -78 -9 -26 -48 -118 -86 -203 l-70 -155 -81 -3 c-74
-3 -80 -1 -74 15 4 10 39 92 80 182 40 90 73 170 73 178 0 9 -8 13 -21 11 -16
-2 -38 -42 -106 -195 l-85 -193 -79 0 c-44 0 -79 2 -79 5 0 3 73 169 161 368
89 199 182 408 207 465 l45 102 141 0 c115 0 146 -3 165 -16z m1041 12 c0 -3
-43 -100 -96 -216 -52 -117 -94 -214 -92 -216 3 -2 42 56 89 129 l85 132 62 3
c34 2 62 -1 62 -5 0 -4 -49 -82 -109 -173 l-109 -165 -37 -160 c-21 -88 -43
-182 -49 -210 l-12 -50 -71 -3 -72 -3 25 93 c14 51 36 130 49 177 14 46 23 86
21 88 -2 2 -23 -40 -46 -94 -23 -54 -60 -135 -81 -180 l-38 -83 -60 0 c-34 0
-61 3 -61 8 0 8 67 162 255 582 70 157 133 300 140 318 14 31 15 32 79 32 37
0 66 -2 66 -4z m800 -1 c0 -2 -12 -29 -27 -60 l-27 -55 -72 0 c-55 0 -74 -4
-87 -17 -16 -18 -97 -196 -97 -213 0 -6 9 -10 21 -10 16 0 28 17 56 80 l36 80
78 0 78 0 -34 -80 c-33 -77 -33 -80 -14 -80 25 0 22 -17 -11 -93 -17 -39 -25
-47 -48 -47 -25 0 -31 -11 -91 -148 -36 -81 -80 -180 -99 -220 l-33 -74 -143
4 c-170 4 -180 8 -174 78 7 73 123 327 172 376 23 23 47 43 55 46 12 3 11 8
-2 29 -21 32 -12 65 53 206 89 189 109 202 293 203 64 0 117 -2 117 -5z m668
-11 c42 -29 30 -86 -61 -276 -51 -107 -106 -178 -139 -178 -6 0 -3 -9 7 -20
30 -33 17 -70 -130 -397 l-24 -53 -80 0 -80 0 33 78 c19 42 54 124 80 181 52
116 55 134 26 129 -16 -2 -39 -46 -105 -193 -47 -104 -85 -191 -85 -192 0 -6
-160 -3 -160 3 0 3 56 130 124 282 68 153 161 361 207 465 l83 187 141 0 c111
0 145 -3 163 -16z m663 -1 c-9 -19 -237 -529 -346 -778 l-61 -140 -72 -3 -72
-3 19 43 c38 87 393 883 398 891 2 4 36 7 74 7 63 0 69 -2 60 -17z m219 12 c0
-7 -94 -218 -270 -610 -67 -148 -126 -282 -132 -297 -10 -27 -13 -28 -79 -28
-38 0 -69 2 -69 5 0 2 52 120 115 262 64 142 157 351 208 465 l92 208 68 0
c37 0 67 -2 67 -5z m1075 -51 c-14 -31 -25 -58 -25 -60 0 -1 -23 -4 -52 -6
l-51 -3 -49 -109 c-26 -59 -48 -112 -48 -117 0 -5 18 -9 40 -9 47 0 49 -6 15
-77 l-24 -53 -48 0 -48 0 -84 -187 c-47 -103 -91 -205 -99 -225 l-15 -38 -83
0 -83 0 66 148 c36 81 91 206 123 277 31 72 86 195 122 275 36 80 75 166 86
193 l21 47 130 0 131 0 -25 -56z m988 -21 c-64 -139 -163 -367 -159 -370 1 -2
42 60 90 137 l87 140 65 0 c35 0 64 -2 64 -5 0 -2 -50 -78 -110 -169 l-111
-165 -49 -212 c-28 -117 -50 -214 -50 -216 0 -2 -31 -3 -70 -3 -38 0 -70 4
-70 9 0 4 20 80 45 167 25 87 44 162 43 166 -2 5 -39 -70 -82 -167 l-79 -175
-64 0 c-34 0 -63 2 -63 4 0 1 81 185 181 407 99 222 192 432 207 466 l27 63
67 0 67 0 -36 -77z m1617 73 c0 -1 -36 -84 -80 -182 -44 -98 -138 -308 -208
-466 l-127 -288 -67 0 c-38 0 -68 4 -68 10 0 6 -9 6 -26 0 -38 -15 -100 -12
-114 5 -25 30 -5 88 142 415 104 232 140 295 181 320 34 21 111 27 122 10 13
-21 23 -7 65 85 l43 95 68 0 c38 0 69 -2 69 -4z m1651 -38 c-10 -24 -41 -95
-70 -158 -28 -63 -113 -254 -189 -425 l-138 -310 -67 -3 c-38 -2 -67 1 -67 7
0 5 29 74 64 153 35 78 121 271 191 428 70 157 134 300 141 318 14 32 15 32
84 32 l69 0 -18 -42z m-8400 -138 c44 -24 28 -73 -142 -453 -101 -227 -126
-269 -174 -291 -47 -23 -217 -22 -240 0 -27 27 -19 48 168 466 121 269 140
288 285 288 46 0 92 -5 103 -10z m387 -6 c19 -13 22 -21 16 -52 -7 -39 -79
-218 -96 -239 -10 -12 -138 -19 -138 -8 0 2 18 45 40 95 44 101 47 110 25 110
-18 0 -35 -32 -161 -315 -65 -146 -99 -234 -93 -240 15 -16 36 15 83 120 l44
100 57 3 c90 5 90 5 43 -100 -61 -135 -102 -197 -143 -214 -45 -19 -204 -19
-230 -1 -30 23 -15 75 94 320 162 365 188 410 244 426 55 16 190 13 215 -5z
m2123 6 c26 -15 25 -65 -5 -142 -45 -118 -227 -513 -254 -552 -36 -52 -73 -66
-179 -66 -109 0 -138 14 -128 63 10 46 249 580 282 630 40 60 80 77 181 77 46
0 92 -5 103 -10z m1776 -12 c-3 -13 -66 -158 -140 -323 -83 -184 -132 -304
-126 -310 19 -19 49 36 184 343 l139 312 68 0 c37 0 68 -2 68 -4 0 -4 -34 -82
-228 -516 l-110 -245 -72 -3 c-54 -2 -70 0 -64 9 5 9 2 10 -12 4 -10 -5 -42
-10 -71 -13 -44 -3 -53 -1 -63 17 -18 36 -3 76 223 576 24 55 52 117 60 138
l16 37 67 0 c64 0 66 -1 61 -22z m405 11 c2 -7 12 -7 31 0 31 12 77 14 101 5
19 -7 21 -56 5 -105 -16 -46 -279 -642 -289 -652 -4 -4 -36 -7 -72 -5 l-65 3
133 300 c74 165 134 311 134 324 0 57 -43 -22 -176 -320 l-137 -309 -69 0
c-37 0 -68 1 -68 3 0 3 174 396 314 710 l26 57 64 0 c37 0 66 -5 68 -11z
m1137 -8 c33 -33 20 -70 -166 -486 -131 -293 -112 -265 -187 -265 -39 0 -66 4
-68 11 -3 9 -9 9 -25 0 -12 -6 -42 -11 -67 -11 -84 0 -82 39 19 255 50 108 80
137 197 189 l86 38 36 82 c40 90 42 96 24 96 -15 0 -45 -46 -72 -107 l-19 -43
-69 0 c-37 0 -68 2 -68 4 0 12 68 148 93 184 39 58 73 71 180 72 73 0 90 -3
106 -19z m263 8 c3 -9 9 -9 25 0 31 16 98 14 113 -4 27 -32 3 -98 -223 -597
l-71 -158 -68 0 c-37 0 -68 2 -68 4 0 2 14 35 31 73 150 330 239 537 239 554
0 10 -4 19 -10 19 -16 0 -52 -73 -181 -367 l-124 -283 -68 0 c-82 0 -85 -22
24 218 44 96 79 175 79 177 0 4 160 357 167 368 7 12 131 8 135 -4z m1588 -7
c22 -18 22 -22 11 -67 -13 -50 -209 -496 -258 -586 -44 -81 -67 -93 -183 -97
-116 -4 -140 4 -140 51 0 18 22 82 49 142 224 510 244 546 305 564 17 5 68 10
112 10 65 1 86 -3 104 -17z m260 14 c0 -4 -88 -206 -180 -411 -96 -215 -104
-235 -96 -243 21 -21 56 46 220 423 24 55 58 130 75 168 l30 67 66 0 c36 0 65
-3 65 -8 0 -8 -62 -150 -236 -539 l-99 -223 -67 0 c-38 0 -68 4 -68 9 0 6 -11
6 -29 0 -41 -14 -102 -7 -115 13 -16 26 2 80 109 318 53 118 117 263 142 323
l46 107 69 0 c37 0 68 -2 68 -4z m3204 -1606 c7 0 45 -16 83 -35 115 -57 151
-136 140 -305 -9 -136 -32 -226 -140 -550 l-102 -305 -497 0 c-273 0 -499 2
-501 5 -3 3 39 140 94 304 110 333 119 382 73 412 -16 11 -64 21 -126 28 -91
9 -102 8 -113 -8 -7 -9 -66 -175 -130 -369 -65 -194 -122 -358 -128 -365 -9
-11 -104 -13 -498 -10 -268 2 -490 6 -494 10 -3 3 87 287 202 630 l209 623
779 -1 c752 0 785 -1 925 -22 80 -12 157 -25 173 -28 l27 -6 2 108 2 109 3
-112 c3 -86 7 -113 17 -113z m-5844 70 c203 -19 344 -58 416 -116 31 -25 45
-46 58 -88 24 -75 22 -205 -3 -328 -23 -110 -29 -129 -118 -393 -119 -350
-113 -335 -137 -341 -34 -8 -963 0 -972 9 -4 4 38 146 95 315 57 173 102 323
101 344 0 56 -34 89 -97 95 -89 9 -172 -36 -212 -116 -10 -20 -62 -169 -116
-331 -54 -162 -102 -301 -108 -307 -7 -10 -108 -13 -442 -13 -238 0 -459 3
-492 6 l-60 7 23 71 c46 143 172 512 192 561 74 185 163 333 259 428 131 131
321 181 808 211 111 7 689 -3 805 -14z m-6840 -28 c331 -51 435 -118 459 -294
19 -137 -13 -287 -142 -673 l-84 -250 -496 -3 c-379 -2 -497 1 -497 10 0 6 38
125 85 264 97 288 110 343 94 391 -15 46 -51 61 -162 69 -87 6 -96 5 -105 -13
-6 -10 -62 -176 -126 -368 l-114 -350 -494 -3 c-271 -1 -498 0 -504 2 -6 2 69
244 192 612 112 334 206 614 209 622 4 12 123 13 778 9 719 -4 781 -6 907 -25z
m2745 11 c-3 -10 -29 -85 -56 -168 -28 -82 -64 -189 -81 -237 l-31 -88 -300
-2 -300 -3 -124 -370 c-68 -203 -130 -373 -136 -377 -14 -9 -870 -11 -943 -2
l-51 6 209 629 210 629 805 0 c763 0 805 -1 798 -17z m1495 13 c0 -13 -422
-1252 -429 -1259 -10 -10 -976 -5 -987 6 -5 4 86 289 200 632 l209 625 503 0
c277 0 504 -2 504 -4z m5514 -28 c-3 -18 -12 -67 -20 -108 -8 -41 -20 -111
-28 -155 -27 -149 -85 -462 -90 -486 -3 -13 -21 -114 -41 -224 -19 -110 -39
-213 -43 -230 l-8 -30 -330 -3 c-385 -4 -479 2 -469 26 19 48 117 453 111 459
-13 13 -26 -14 -124 -247 l-99 -235 -396 0 c-217 0 -398 2 -401 5 -3 3 29 75
71 160 41 85 110 227 153 315 43 88 135 277 205 420 70 143 138 284 151 313
l25 52 669 0 670 0 -6 -32z m3157 -1015 c27 -16 30 -22 27 -63 -3 -49 4 -43
-125 -104 l-53 -25 0 60 c0 120 69 180 151 132z m-171 -258 c0 -22 -32 -120
-53 -160 l-20 -40 -12 35 c-7 19 -20 49 -29 65 -22 41 -20 55 9 84 18 19 35
26 65 26 23 1 40 -4 40 -10z m-4200 -116 c0 -6 -41 -109 -91 -228 -51 -119
-109 -256 -129 -306 -21 -49 -63 -151 -95 -225 -31 -74 -72 -171 -90 -215 -18
-44 -42 -101 -54 -128 l-20 -47 171 2 171 3 142 565 c77 311 144 571 148 578
6 9 99 12 408 12 219 0 399 -4 399 -8 0 -17 -114 -649 -146 -807 -7 -38 -18
-97 -23 -130 -5 -33 -25 -145 -44 -250 -34 -183 -53 -287 -118 -645 -16 -91
-38 -212 -49 -270 -10 -58 -29 -159 -41 -225 -12 -66 -24 -133 -28 -150 l-7
-30 -487 -3 c-268 -1 -487 0 -487 3 0 3 24 106 54 228 112 457 136 558 136
577 0 19 -8 20 -207 20 l-208 0 -59 -143 c-145 -350 -182 -440 -232 -557 l-52
-125 -481 -3 c-360 -2 -481 1 -481 9 0 13 9 32 135 294 43 88 99 205 125 260
26 55 78 163 115 240 37 77 93 194 125 260 88 185 171 357 240 500 34 72 87
182 117 245 98 204 159 331 251 523 l91 187 400 0 c287 0 401 -3 401 -11z
m-6874 -21 c-4 -13 -9 -35 -12 -50 l-6 -28 297 0 c233 0 296 -3 293 -12 -3 -7
-40 -122 -84 -255 l-78 -243 -301 -2 -300 -3 -227 -675 c-125 -371 -226 -681
-225 -688 2 -11 59 -13 289 -12 164 0 289 -3 292 -9 3 -5 -32 -121 -78 -257
l-83 -249 -801 -3 c-715 -2 -802 0 -802 13 0 15 816 2470 826 2487 3 4 230 8
506 8 l500 0 -6 -22z m-2841 -60 c-13 -40 -33 -102 -44 -136 -12 -35 -21 -68
-21 -74 0 -7 39 -9 108 -7 167 6 210 39 278 217 l28 72 493 0 c271 0 493 -3
493 -6 0 -4 -20 -48 -44 -99 -92 -194 -203 -301 -405 -390 -43 -19 -84 -35
-89 -35 -5 0 -27 -7 -47 -16 l-38 -15 77 -34 c134 -58 185 -110 213 -218 30
-115 14 -176 -253 -979 l-236 -708 -499 0 c-275 0 -499 1 -499 3 0 2 108 329
240 728 133 398 244 745 247 771 11 93 -45 131 -186 126 l-85 -3 -271 -810
-270 -810 -502 -3 c-277 -1 -503 1 -503 4 0 7 805 2424 822 2467 l10 27 503 0
503 0 -23 -72z m4935 62 c0 -5 -146 -448 -325 -984 -179 -536 -325 -977 -325
-980 0 -2 130 -6 289 -7 159 -2 292 -7 296 -11 4 -3 -31 -118 -78 -255 l-84
-248 -794 -3 c-437 -1 -799 0 -805 2 -6 2 132 430 338 1047 192 574 379 1135
416 1246 l67 203 503 0 c313 0 502 -4 502 -10z m1925 -17 c-48 -122 -615
-1857 -615 -1883 0 -20 7 -45 15 -57 32 -46 156 -53 223 -13 64 39 44 -13 427
1140 130 393 246 741 257 773 l21 57 503 0 c277 0 504 -1 504 -2 0 -2 -138
-414 -306 -917 -184 -552 -326 -961 -358 -1032 -125 -276 -270 -426 -467 -483
-181 -52 -457 -76 -869 -76 -520 0 -804 37 -922 121 -78 56 -99 216 -55 419
19 82 574 1777 642 1958 3 9 114 12 506 12 473 0 501 -1 494 -17z m5595 15 c0
-2 -146 -443 -325 -982 -179 -538 -325 -982 -325 -987 0 -13 177 -11 225 2 83
23 106 63 214 389 39 118 174 521 300 895 l228 680 502 3 c275 1 501 -1 501
-4 0 -11 -517 -1564 -565 -1699 -170 -474 -311 -644 -596 -720 -215 -56 -263
-59 -1161 -63 -456 -1 -828 1 -828 5 0 10 819 2463 826 2475 4 7 1004 12 1004
6z m-8650 -3423 c0 -20 -53 -105 -68 -109 -12 -4 -42 -58 -85 -154 -36 -81
-102 -226 -145 -322 -101 -224 -109 -247 -95 -261 9 -9 6 -23 -10 -58 -12 -25
-26 -50 -32 -54 -13 -10 -96 2 -114 16 -23 20 -7 88 57 228 33 74 76 170 96
214 184 423 204 462 257 488 31 15 139 24 139 12z m630 -5 c0 -6 -9 -29 -20
-50 -20 -40 -21 -40 -80 -40 -33 0 -60 2 -60 4 0 2 9 25 20 50 l19 46 61 0
c35 0 60 -4 60 -10z m190 -2 c0 -7 -14 -42 -30 -76 -17 -35 -30 -66 -30 -68 0
-2 11 -4 25 -4 l25 0 -22 -45 c-18 -36 -27 -45 -48 -45 -23 0 -30 -8 -50 -57
-13 -32 -59 -136 -102 -231 -43 -95 -78 -178 -78 -183 0 -5 7 -9 16 -9 13 0
15 -6 9 -27 -3 -16 -13 -39 -22 -52 -13 -21 -20 -23 -64 -17 -77 10 -82 14
-76 55 2 20 53 144 111 275 80 179 104 241 94 247 -10 6 -8 18 10 53 12 26 28
46 36 46 7 0 28 34 46 75 l33 75 58 0 c41 0 59 -4 59 -12z m194 -45 c-14 -31
-32 -69 -40 -85 -16 -31 -14 -33 31 -17 38 14 80 6 89 -17 11 -29 -40 -156
-216 -541 l-52 -113 -58 0 c-32 0 -58 2 -58 4 0 2 50 116 111 253 61 136 117
262 125 280 18 41 1 53 -23 16 -10 -15 -71 -144 -135 -287 l-117 -261 -62 -3
c-47 -2 -60 0 -56 10 2 7 85 194 183 416 l178 402 62 0 63 0 -25 -57z m576 48
c0 -4 -21 -55 -46 -112 -81 -183 -85 -194 -76 -184 5 6 48 76 96 158 l87 147
70 0 c39 0 69 -3 67 -7 -1 -5 -56 -87 -121 -185 l-119 -176 -57 -229 -57 -228
-58 -3 c-33 -2 -64 -1 -71 2 -10 3 1 51 41 182 30 97 53 179 51 181 -4 3 -134
-279 -156 -339 -10 -27 -14 -28 -75 -28 -36 0 -67 3 -69 8 -2 4 21 63 53 132
31 69 97 215 145 325 48 110 105 237 126 283 l38 82 65 0 c36 0 66 -4 66 -9z
m370 -1 c0 -6 -9 -29 -20 -50 -20 -40 -21 -40 -80 -40 -33 0 -60 2 -60 4 0 2
9 24 20 50 l21 46 59 0 c35 0 60 -4 60 -10z m501 -32 c-10 -24 -44 -99 -76
-168 -96 -209 -95 -215 1 -62 38 59 73 110 79 114 12 9 99 10 108 2 4 -4 -6
-23 -22 -43 -15 -20 -60 -85 -99 -144 l-72 -108 -41 -177 c-22 -97 -42 -183
-45 -189 -4 -16 -124 -18 -124 -2 0 9 70 254 86 299 3 10 2 11 -4 5 -6 -5 -39
-77 -75 -160 l-65 -150 -56 -3 c-33 -2 -56 1 -56 7 0 5 16 45 36 88 20 43 60
132 89 198 97 222 197 450 216 493 l18 42 60 0 60 0 -18 -42z m359 37 c0 -2
-10 -25 -22 -50 l-22 -45 -58 0 c-33 0 -58 4 -58 10 0 6 9 29 20 50 20 40 21
40 80 40 33 0 60 -2 60 -5z m910 -3 c0 -4 -29 -74 -65 -155 -36 -81 -65 -150
-65 -152 0 -3 8 -5 18 -5 15 0 35 37 89 158 l71 157 72 3 c56 2 71 0 67 -10
-7 -17 -139 -314 -264 -593 l-98 -220 -67 -3 c-38 -2 -68 1 -68 6 0 8 78 192
139 325 30 67 30 67 8 67 -19 0 -34 -26 -111 -200 l-89 -200 -68 0 c-38 0 -69
3 -69 6 0 6 31 76 175 399 34 77 90 204 125 283 l63 142 68 0 c38 0 69 -4 69
-8z m1681 -2 c41 -22 32 -47 -190 -545 -40 -88 -86 -191 -103 -230 -41 -92
-71 -137 -105 -157 -36 -21 -143 -35 -143 -19 0 25 51 110 69 116 12 3 33 39
59 98 22 51 92 209 156 352 64 142 116 265 116 271 0 7 -5 14 -10 16 -7 2 -2
24 11 56 l22 52 49 0 c27 0 58 -5 69 -10z m-2141 -108 c0 -5 -26 -67 -58 -138
l-58 -129 -42 -3 c-23 -2 -42 -1 -42 1 0 2 24 57 53 123 30 65 56 127 60 137
5 12 17 17 47 17 22 0 40 -4 40 -8z m-3208 -37 c3 -3 -28 -90 -68 -192 -41
-102 -73 -187 -71 -189 1 -2 47 85 101 191 l98 195 48 0 c25 0 49 -2 52 -6 5
-4 -42 -134 -122 -334 -36 -92 -10 -48 90 148 l95 187 49 3 c27 2 52 0 56 -5
5 -4 -31 -78 -79 -163 -48 -85 -131 -235 -185 -332 l-98 -178 -54 0 c-29 0
-55 3 -57 8 -3 4 13 54 35 112 80 210 99 264 91 257 -4 -4 -51 -90 -103 -190
l-95 -182 -57 -3 c-42 -2 -58 1 -58 10 0 7 48 158 107 335 90 268 111 323 128
326 32 7 91 7 97 2z m498 -5 c0 -6 -66 -159 -147 -340 l-146 -330 -59 0 c-71
0 -73 -18 24 200 39 85 92 207 120 270 28 63 61 136 74 163 l24 47 55 0 c31 0
55 -5 55 -10z m1330 0 c0 -6 -30 -77 -66 -158 -36 -81 -102 -229 -146 -329
l-81 -183 -59 0 c-32 0 -58 2 -58 5 0 7 78 190 133 312 25 54 68 152 97 218
29 66 57 126 62 133 13 15 118 17 118 2z m284 0 c40 -15 34 -53 -31 -207 l-26
-63 -59 0 c-40 0 -58 4 -58 13 0 6 14 41 30 75 31 66 37 92 20 92 -14 0 -37
-46 -166 -338 -58 -132 -61 -142 -41 -142 7 0 33 42 56 94 31 68 49 96 64 100
35 9 97 7 97 -4 0 -5 -21 -57 -46 -115 -57 -129 -88 -160 -170 -171 -32 -4
-78 -3 -103 2 -42 8 -46 12 -49 41 -2 23 18 80 69 195 162 368 186 411 242
427 43 12 140 13 171 1z m570 2 c4 -7 -113 -277 -262 -604 l-31 -68 -55 0
c-31 0 -56 4 -56 9 0 9 89 215 210 486 34 77 66 150 71 163 7 19 16 22 63 22
30 0 57 -4 60 -8z m192 -2 c6 -6 20 -6 40 2 36 13 82 4 91 -18 9 -24 -33 -134
-155 -404 l-111 -245 -60 -3 c-34 -2 -61 -1 -61 1 0 2 15 37 34 78 139 305
207 472 198 481 -14 14 -16 9 -153 -297 l-116 -260 -63 -3 c-48 -2 -61 0 -57
10 11 28 289 653 294 661 6 11 107 9 119 -3z m1198 0 c47 -18 40 -44 -102
-364 -116 -263 -137 -290 -226 -301 -33 -4 -80 -4 -105 1 -72 14 -69 35 40
281 145 329 166 366 222 382 43 12 140 13 171 1z m232 0 c7 -7 21 -7 42 1 38
13 77 6 85 -16 8 -19 -13 -87 -54 -181 l-33 -74 -58 0 -58 0 26 58 c42 92 49
111 40 119 -5 4 -16 -3 -25 -16 -14 -22 -153 -324 -218 -476 -14 -33 -30 -66
-35 -72 -12 -15 -118 -18 -118 -3 0 5 11 33 24 62 118 262 236 531 236 536 0
4 9 22 20 40 18 29 24 32 68 32 26 0 53 -5 58 -10z m320 1 c5 -6 25 -6 50 1
71 19 95 -5 76 -76 -11 -43 -238 -562 -255 -583 -10 -14 -117 -18 -117 -5 0 5
52 125 115 267 63 142 115 268 115 279 0 44 -38 -19 -108 -179 -129 -293 -155
-350 -165 -362 -11 -14 -117 -18 -117 -5 0 9 77 186 201 460 38 84 69 156 69
160 0 4 7 18 16 30 12 17 25 22 63 22 26 0 51 -4 57 -9z m466 -9 c14 -14 2
-71 -34 -159 l-22 -53 -58 0 c-32 0 -58 4 -58 9 0 4 10 32 21 60 22 51 21 70
-1 56 -14 -9 -60 -112 -60 -134 0 -10 21 -36 46 -59 42 -37 45 -44 39 -74 -12
-56 -112 -254 -140 -276 -32 -25 -122 -38 -184 -26 -42 8 -46 12 -49 41 -2 19
10 64 31 115 l35 83 66 3 66 3 -35 -72 c-34 -71 -37 -93 -11 -83 15 6 76 143
76 172 0 10 -20 35 -45 55 -25 21 -45 46 -45 57 0 24 61 166 93 216 31 49 49
64 90 75 46 11 164 6 179 -9z"/>
<path d="M4928 12555 c-56 -123 -63 -145 -48 -145 27 0 52 38 104 155 51 117
55 135 28 135 -14 0 -34 -34 -84 -145z"/>
<path d="M6648 12303 c-26 -31 -130 -273 -124 -288 17 -45 43 -4 142 228 30
69 31 77 15 77 -10 0 -25 -8 -33 -17z"/>
<path d="M7490 12673 c-44 -96 -110 -257 -106 -260 2 -3 13 -2 24 1 12 4 37
46 71 118 63 136 72 168 44 168 -12 0 -25 -11 -33 -27z"/>
<path d="M11949 12508 c-26 -35 -229 -485 -229 -505 0 -7 7 -13 15 -13 17 0
42 51 176 354 46 105 76 183 70 189 -5 5 -18 -5 -32 -25z"/>
<path d="M5337 12517 c-8 -12 -47 -94 -87 -182 -132 -292 -151 -338 -140 -349
7 -7 15 -5 24 4 12 14 230 491 243 533 8 25 -22 22 -40 -6z"/>
<path d="M7848 12518 c-14 -22 -68 -139 -187 -407 -33 -74 -48 -118 -41 -125
13 -13 35 7 51 47 7 18 59 135 116 261 57 126 103 233 103 237 0 18 -28 8 -42
-13z"/>
<path d="M11033 12212 c-29 -23 -115 -214 -102 -227 6 -6 14 -4 24 5 17 18
116 240 107 240 -4 0 -17 -8 -29 -18z"/>
<path d="M13005 12508 c-32 -54 -225 -491 -225 -510 0 -25 17 -22 34 5 8 12
47 94 86 182 39 88 89 198 111 243 21 46 39 90 39 98 0 25 -25 15 -45 -18z"/>
<path d="M10581 5966 c-12 -18 -21 -36 -21 -39 0 -3 -36 -85 -80 -182 -90
-198 -99 -225 -78 -225 12 0 118 221 225 468 12 27 -27 10 -46 -22z"/>
</g>
</svg>
