<?xml version="1.0"?>
<svg
  xmlns:rdf="http://www.w3.org/1999/02/22-rdf-syntax-ns#"
  xmlns="http://www.w3.org/2000/svg"
  xmlns:cc="http://web.resource.org/cc/"
  xmlns:dc="http://purl.org/dc/elements/1.1/"
  id="Layer_1"
  xml:space="preserve"
  viewBox="0 0 486.001 150.381"
  version="1.0"
  preserveAspectRatio="none"
>
  <g
    id="g5"
    stroke="#000"
    stroke-width=".036"
    stroke-miterlimit="10"
    fill-rule="evenodd"
  >
    <path
      id="path7"
      d="m129.91 111.49c-7.17-0.14-12.6-1.91-16.6-5.43-4.21-3.64-6.48-9.653-7.34-15.665-0.76-6.228 0.64-15.156 2.84-20.411 2.12-5.184 5.54-8.136 9.97-10.656 4.25-2.664 9.22-4.14 15.88-4.968 6.62-0.9 14.61-1.116 23.97-0.504l-2.37-7.344c-10.66-1.08-19.95-0.936-28.01 0.72-8.21 1.512-14.9 4.212-20.38 8.784-5.54 4.644-10.256 11.664-12.344 18.72-2.088 7.02-2.34 15.623-0.216 22.751 1.98 6.953 4.93 14.363 12.31 18.753 7.35 4.22 17.61 6.56 31.32 6.88-2.99-3.85-6.01-7.74-9.03-11.63z"
    />
    <path
      id="path9"
      d="m5.238 36.324h9.036l2.124 3.564c3.96-0.072 7.236 0 9.972 0.216 2.7 0.144 4.5 0.288 6.372 0.972 1.8 0.684 3.312 1.656 4.536 3.06 12.06-0.864 19.944-0.468 23.94 1.188 3.852 1.584 3.816 6.84-0.252 8.532-4.104 1.62-11.988 2.016-23.94 1.188-1.224 1.332-2.736 2.412-4.536 3.096-1.872 0.612-3.672 0.648-6.372 0.936-2.736 0.108-6.012 0.324-9.972 0.252l-2.124 3.564h-9.036c-3.456-4.392-4.968-8.568-4.968-13.068 0.036-4.536 1.728-8.856 5.22-13.5z"
    />
    <polygon
      id="polygon11"
      points="246.3 97.487 337.48 97.487 337.48 108.4 246.3 108.4"
    />
    <polygon
      id="polygon13"
      points="246.3 114.37 337.48 114.37 337.48 125.28 246.3 125.28"
    />
    <path
      id="path15"
      d="m344.93 97.56c1.77-0.288 3.46-0.216 5.23 0.216 1.69 0.36 3.63 1.08 5.14 2.16 1.4 1.044 2.67 2.374 3.64 4.144 0.97 1.69 1.55 3.78 1.87 6.12 0.04 2.26-0.29 5.22-0.97 7.3-0.69 1.95-1.59 3.35-2.99 4.65-1.62 1.11-3.63 2.02-5.9 2.56-2.31 0.54-4.83 0.72-7.71 0.68l0.9-11.16c1.95 0.11 3.57-0.04 4.72-0.29 1.19-0.25 1.91-0.75 2.3-1.37 0.29-0.75 0.18-2.26-0.32-2.88-0.58-0.68-1.84-1.08-2.95-1.18-1.23-0.22-2.56-0.19-4.14 0.1 0.39-3.67 0.79-7.34 1.18-11.05z"
    />
    <path
      id="path17"
      d="m345.58 96.983c0.9 0.685 1.41 1.584 1.66 3.137 0.14 1.4-0.15 3.99-0.43 5.54-0.44 1.48-1.01 2.59-1.88 3.35h-9.46s1.69-2.92 2.01-5.91c0.33-2.98-0.68-6.044-0.68-6.044 2.92 0 5.83-0.036 8.78-0.073z"
    />
    <path
      id="path19"
      d="m345.58 113.83c0.9 0.65 1.41 1.66 1.66 3.17 0.14 1.4-0.15 4-0.43 5.54-0.44 1.48-1.01 2.6-1.88 3.35h-9.46s1.69-2.95 2.01-5.94c0.33-2.99-0.68-6.01-0.68-6.01 2.92-0.04 5.83-0.07 8.78-0.11z"
    />
    <polygon
      id="polygon21"
      points="263.36 95.147 317.47 95.147 317.47 96.552 263.36 96.552"
    />
    <polygon
      id="polygon23"
      points="305.59 92.987 315.77 92.987 315.77 97.991 305.59 97.991"
    />
    <polygon
      id="polygon25"
      points="309.44 89.892 311.92 89.892 311.92 93.132 309.44 93.132"
    />
    <polygon
      id="polygon27"
      points="307.35 88.956 314.19 88.956 314.19 90.396 307.35 90.396"
    />
    <path
      id="path29"
      d="m351.99 124.24l1.84 2.19c-0.69 0.51-1.19 0.97-1.52 1.41-0.32 0.39-0.5 0.75-0.39 1.08 0.61 0.5 1.3 0.97 1.91 1.4 0.53 0.43 1.29 0.86 1.83 1.01 0.47 0.03 0.94-0.18 1.26-0.65 1.15 0.11 2.49-0.25 4.14-0.94 1.69-0.79 3.71-1.65 5.62-3.42 1.69-1.87 3.35-4.43 4.82-7.67 1.48-0.25 2.13-0.79 2.34-1.33 0.04-0.68-0.36-1.36-1.58-2.34 0.43-2.3 0.18-4.64-0.76-7.16-1.08-2.56-4.32-7.42-5-7.922-0.61-0.647 0.75 2.592 1.33 4.432 0.5 1.76 1.11 4.43 1.44 6.33 0.14 1.8 0 3.35-0.43 4.65l-8.43-1.59-1.01 3.6 8.03 1.52c-0.29 2.01-0.93 3.63-1.94 5s-2.41 2.2-4.07 2.92c0.18-0.44 0.07-0.9-0.18-1.26-0.29-0.54-1.19-0.9-1.58-1.08-0.54-0.11-1.05-0.18-1.52 0.18l-2.23-2.2c-0.32 0.18-0.75 0.43-1.44 0.76-0.68 0.28-1.51 0.64-2.48 1.08z"
    />
    <polygon
      id="polygon31"
      points="276.1 128.92 323.8 128.92 323.8 130.32 276.1 130.32"
    />
    <polygon
      id="polygon33"
      points="315.13 124.49 320.89 124.49 320.89 132.66 315.13 132.66"
    />
    <polygon
      id="polygon35"
      points="275.17 126.83 278.01 126.83 278.01 132.91 275.17 132.91"
    />
    <polygon
      id="polygon37"
      points="279.23 126.9 281.75 126.9 281.75 133.02 279.23 133.02"
    />
    <polygon
      id="polygon39"
      points="307.06 124.49 312.82 124.49 312.82 132.66 307.06 132.66"
    />
    <path
      id="path41"
      d="m193.7 16.776v4.752l4.17 0.396v10.98c-1.4 0-2.48 0.216-3.63 0.504s-2.16 0.792-3.03 1.368v5.472l0.76 0.828c-0.04 2.052-0.04 11.232 0 28.224-0.04 16.992-0.04 40.97 0 72.9l-1.3 0.47v5.54c0.22 0.47 1.08 0.94 2.2 1.26 1.22 0.33 3.2 0.65 4.82 0.83 1.59 0.07 2.85 0.11 4.32-0.04 2.02-0.25 3.64-0.54 4.86-0.86 1.19-0.32 1.88-0.79 2.2-1.26v-5.54l-1.3-0.44c-0.03-32.04-0.03-55.832 0-72.932-0.03-16.992-0.03-26.172 0-28.224l0.76-0.828v-5.472c-0.94-0.612-1.94-1.008-3.02-1.332-1.19-0.324-2.27-0.504-3.64-0.54v-10.836l4.18-0.54v-4.752c-1.3-0.396-2.74-0.576-4.18-0.684-1.51-0.072-3.35-0.072-4.68 0.144-1.4 0.072-2.52 0.324-3.49 0.612z"
    />
    <polygon
      id="polygon43"
      points="192.47 35.712 192.73 35.712 192.73 39.636 192.47 39.636"
    />
    <polygon
      id="polygon45"
      points="194.06 36 194.31 36 194.31 39.924 194.06 39.924"
    />
    <polygon
      id="polygon47"
      points="195.43 36.072 195.68 36.072 195.68 39.996 195.43 39.996"
    />
    <polygon
      id="polygon49"
      points="197.62 36.288 197.87 36.288 197.87 40.248 197.62 40.248"
    />
    <polygon
      id="polygon51"
      points="199.6 36.288 199.82 36.288 199.82 40.248 199.6 40.248"
    />
    <polygon
      id="polygon53"
      points="201.65 36.144 201.87 36.144 201.87 40.104 201.65 40.104"
    />
    <polygon
      id="polygon55"
      points="203.78 35.856 203.99 35.856 203.99 39.78 203.78 39.78"
    />
    <polygon
      id="polygon57"
      points="205.87 35.532 206.12 35.532 206.12 39.492 205.87 39.492"
    />
    <path
      id="path59"
      d="m194.6 18.648c0.21 0.18 1.15 0.468 2.95 0.468 1.84 0 4.21-0.072 7.67-0.216v1.44c-0.72 0.144-1.84 0.288-3.21 0.288-1.47 0-3.99 0.144-5.22-0.144-1.29-0.36-1.98-0.972-2.19-1.836z"
    />
    <path
      id="path61"
      d="m199.82 23.508c-0.15 1.224-0.15 6.696 0 7.956 0.03 1.188 0.29 0.612 0.47-0.612 0.14-1.332 0.28-5.796 0.28-6.984-0.1-1.26-0.68-1.656-0.75-0.36z"
    />
    <path
      id="path63"
      d="m201.73 48.096c-0.18 0.216-0.47 7.668-0.33 13.176 0 5.4 0.11 18.288 0.76 19.224 0.65 0.684 2.66-9.612 3.13-14.22 0.36-4.644-0.47-13.716-0.68-13.176-0.22 0.504-0.47 14.976-0.76 16.2-0.5 1.008-1.22-5.868-1.58-9.396-0.44-3.636-0.44-12.06-0.54-11.808z"
    />
    <polygon
      id="polygon65"
      points="192.22 143.71 192.44 143.71 192.44 147.64 192.22 147.64"
    />
    <polygon
      id="polygon67"
      points="194.09 144.32 194.35 144.32 194.35 148.25 194.09 148.25"
    />
    <polygon
      id="polygon69"
      points="196.22 144.76 196.47 144.76 196.47 148.72 196.22 148.72"
    />
    <polygon
      id="polygon71"
      points="198.41 144.94 198.67 144.94 198.67 148.86 198.41 148.86"
    />
    <polygon
      id="polygon73"
      points="200.93 145.01 201.15 145.01 201.15 148.93 200.93 148.93"
    />
    <polygon
      id="polygon75"
      points="203.35 144.94 203.56 144.94 203.56 148.86 203.35 148.86"
    />
    <polygon
      id="polygon77"
      points="205.47 144.61 205.69 144.61 205.69 148.57 205.47 148.57"
    />
    <polygon
      id="polygon79"
      points="207.27 143.93 207.52 143.93 207.52 147.89 207.27 147.89"
    />
    <path
      id="path81"
      d="m215.87 16.776v4.752l4.18 0.396v10.98c-1.4 0-2.48 0.216-3.64 0.504-1.15 0.288-2.16 0.792-3.02 1.368v5.472l0.76 0.828c-0.04 2.052-0.04 11.232 0 28.224-0.04 16.992-0.04 40.97 0 72.9l-1.3 0.47v5.54c0.22 0.47 1.08 0.94 2.2 1.26 1.22 0.33 3.2 0.65 4.82 0.83 1.58 0.07 2.84 0.11 4.32-0.04 2.02-0.25 3.64-0.54 4.86-0.86 1.19-0.32 1.87-0.79 2.2-1.26v-5.54l-1.3-0.44c-0.04-32.04-0.04-55.832 0-72.932-0.04-16.992-0.04-26.172 0-28.224l0.76-0.828v-5.472c-0.94-0.612-1.95-1.008-3.03-1.332-1.19-0.324-2.27-0.504-3.63-0.54v-10.836l4.17-0.54v-4.752c-1.29-0.396-2.73-0.576-4.17-0.684-1.52-0.072-3.35-0.072-4.68 0.144-1.41 0.072-2.52 0.324-3.5 0.612z"
    />
    <polygon
      id="polygon83"
      points="214.65 35.712 214.9 35.712 214.9 39.636 214.65 39.636"
    />
    <polygon
      id="polygon85"
      points="216.27 36 216.49 36 216.49 39.924 216.27 39.924"
    />
    <polygon
      id="polygon87"
      points="217.6 36.072 217.85 36.072 217.85 39.996 217.6 39.996"
    />
    <polygon
      id="polygon89"
      points="219.8 36.288 220.05 36.288 220.05 40.248 219.8 40.248"
    />
    <polygon
      id="polygon91"
      points="221.78 36.288 221.99 36.288 221.99 40.248 221.78 40.248"
    />
    <polygon
      id="polygon93"
      points="223.83 36.144 224.05 36.144 224.05 40.104 223.83 40.104"
    />
    <polygon
      id="polygon95"
      points="225.95 35.856 226.17 35.856 226.17 39.78 225.95 39.78"
    />
    <polygon
      id="polygon97"
      points="228.08 35.532 228.29 35.532 228.29 39.492 228.08 39.492"
    />
    <path
      id="path99"
      d="m216.77 18.648c0.22 0.18 1.16 0.468 2.96 0.468 1.83 0 4.21-0.072 7.66-0.216v1.44c-0.72 0.144-1.83 0.288-3.2 0.288-1.48 0-4 0.144-5.22-0.144-1.3-0.36-1.98-0.972-2.2-1.836z"
    />
    <path
      id="path101"
      d="m221.99 23.508c-0.14 1.224-0.14 6.696 0 7.956 0.04 1.188 0.29 0.612 0.47-0.612 0.15-1.332 0.29-5.796 0.29-6.984-0.11-1.26-0.68-1.656-0.76-0.36z"
    />
    <path
      id="path103"
      d="m223.9 48.096c-0.21 0.216-0.36 7.668-0.29 13.176 0 5.4 0.11 18.288 0.76 19.224 0.58 0.684 2.63-9.612 3.1-14.22 0.36-4.644-0.47-13.716-0.69-13.176-0.21 0.504-0.47 14.976-0.75 16.2-0.51 1.008-1.23-5.868-1.59-9.396-0.43-3.636-0.43-12.06-0.54-11.808z"
    />
    <polygon
      id="polygon105"
      points="214.4 143.71 214.61 143.71 214.61 147.64 214.4 147.64"
    />
    <polygon
      id="polygon107"
      points="216.31 144.32 216.52 144.32 216.52 148.25 216.31 148.25"
    />
    <polygon
      id="polygon109"
      points="218.39 144.76 218.65 144.76 218.65 148.72 218.39 148.72"
    />
    <polygon
      id="polygon111"
      points="220.59 144.94 220.84 144.94 220.84 148.86 220.59 148.86"
    />
    <polygon
      id="polygon113"
      points="223.11 145.01 223.33 145.01 223.33 148.93 223.11 148.93"
    />
    <polygon
      id="polygon115"
      points="225.52 144.94 225.74 144.94 225.74 148.86 225.52 148.86"
    />
    <polygon
      id="polygon117"
      points="227.65 144.61 227.86 144.61 227.86 148.57 227.65 148.57"
    />
    <polygon
      id="polygon119"
      points="229.48 143.93 229.7 143.93 229.7 147.89 229.48 147.89"
    />
    <path
      id="path121"
      d="m236.68 16.776v4.752l4.14 0.396v10.98c-1.4 0-2.48 0.216-3.63 0.504-1.16 0.288-2.16 0.792-3.03 1.368v5.472l0.76 0.828c-0.04 2.052-0.04 11.232 0 28.224-0.04 16.992-0.04 40.97 0 72.9l-1.3 0.47v5.54c0.29 0.47 0.97 0.94 2.2 1.26 1.15 0.33 3.27 0.65 4.86 0.83 1.51 0.07 2.95 0.11 4.32-0.04 2.09-0.25 3.56-0.54 4.82-0.86 1.08-0.32 1.94-0.79 2.2-1.26v-5.54l-1.26-0.44c-0.04-32.04-0.04-55.832 0-72.932-0.04-16.992-0.04-26.172 0-28.224l0.75-0.828v-5.472c-0.93-0.612-1.94-1.008-3.02-1.332-1.19-0.324-2.27-0.504-3.64-0.54v-10.836l4.14-0.54v-4.752c-1.33-0.396-2.66-0.576-4.14-0.684-1.65-0.072-3.27-0.072-4.71 0.144-1.41 0.072-2.56 0.324-3.46 0.612z"
    />
    <polygon
      id="polygon123"
      points="235.46 35.712 235.67 35.712 235.67 39.636 235.46 39.636"
    />
    <polygon
      id="polygon125"
      points="237.04 36 237.26 36 237.26 39.924 237.04 39.924"
    />
    <polygon
      id="polygon127"
      points="238.41 36.072 238.63 36.072 238.63 39.996 238.41 39.996"
    />
    <polygon
      id="polygon129"
      points="240.61 36.288 240.82 36.288 240.82 40.248 240.61 40.248"
    />
    <polygon
      id="polygon131"
      points="242.55 36.288 242.8 36.288 242.8 40.248 242.55 40.248"
    />
    <polygon
      id="polygon133"
      points="244.6 36.144 244.85 36.144 244.85 40.104 244.6 40.104"
    />
    <polygon
      id="polygon135"
      points="246.73 35.856 246.94 35.856 246.94 39.78 246.73 39.78"
    />
    <polygon
      id="polygon137"
      points="248.85 35.532 249.07 35.532 249.07 39.492 248.85 39.492"
    />
    <path
      id="path139"
      d="m237.58 18.648c0.22 0.18 1.15 0.468 2.95 0.468 1.73 0 4.32-0.072 7.64-0.216v1.44c-0.76 0.144-1.77 0.288-3.17 0.288-1.48 0-4 0.144-5.22-0.144-1.3-0.36-1.98-0.972-2.2-1.836z"
    />
    <path
      id="path141"
      d="m242.8 23.508c-0.14 1.224-0.14 6.696 0 7.956 0.07 1.188 0.22 0.612 0.43-0.612 0.15-1.332 0.26-5.796 0.33-6.984-0.11-1.26-0.69-1.656-0.76-0.36z"
    />
    <path
      id="path143"
      d="m244.67 48.096c-0.21 0.216-0.35 7.668-0.28 13.176 0 5.4 0.1 18.288 0.75 19.224 0.58 0.684 2.63-9.612 3.1-14.22 0.36-4.644-0.47-13.716-0.68-13.176-0.22 0.504-0.47 14.976-0.76 16.2-0.5 1.008-1.23-5.868-1.58-9.396-0.44-3.636-0.44-12.06-0.55-11.808z"
    />
    <polygon
      id="polygon145"
      points="235.21 143.71 235.42 143.71 235.42 147.64 235.21 147.64"
    />
    <polygon
      id="polygon147"
      points="237.08 144.32 237.29 144.32 237.29 148.25 237.08 148.25"
    />
    <polygon
      id="polygon149"
      points="239.2 144.76 239.42 144.76 239.42 148.72 239.2 148.72"
    />
    <polygon
      id="polygon151"
      points="241.4 144.94 241.61 144.94 241.61 148.86 241.4 148.86"
    />
    <polygon
      id="polygon153"
      points="243.88 145.01 244.14 145.01 244.14 148.93 243.88 148.93"
    />
    <polygon
      id="polygon155"
      points="246.33 144.94 246.55 144.94 246.55 148.86 246.33 148.86"
    />
    <polygon
      id="polygon157"
      points="248.45 144.61 248.67 144.61 248.67 148.57 248.45 148.57"
    />
    <polygon
      id="polygon159"
      points="250.25 143.93 250.47 143.93 250.47 147.89 250.25 147.89"
    />
    <path
      id="path161"
      d="m229.77 88.523c-0.68 0.288-1.19 0.721-1.66 1.44-0.54 0.576-1.22 1.476-1.08 2.556 0.15 1.08 0.65 2.484 1.8 4.068 0.47-0.54 1.08-1.044 1.84-1.225 0.68-0.323 1.58-0.468 2.56-0.287 1 0.18 2.08 0.539 3.38 1.224 0.97-1.332 1.37-2.592 1.19-3.924-0.18-1.368-1.08-2.7-2.41-3.996-0.15 1.008-0.69 1.8-1.34 2.088-0.72 0.36-2.3 0.036-2.95-0.145-0.68-0.394-1.22-0.898-1.33-1.799z"
    />
    <path
      id="path163"
      d="m208.06 88.92c-0.61 0.288-1.29 0.72-1.65 1.439-0.58 0.576-1.16 1.477-1.05 2.557s0.76 2.483 1.8 4.067c0.43-0.54 1.08-1.044 1.8-1.224 0.69-0.324 1.59-0.468 2.56-0.288 1.01 0.18 2.09 0.54 3.38 1.224 1.05-1.332 1.41-2.592 1.23-3.924-0.22-1.368-0.98-2.7-2.42-3.996-0.25 1.116-0.61 1.729-1.36 2.124-0.72 0.252-2.31 0.145-2.96-0.18-0.68-0.396-1.22-0.9-1.33-1.799z"
    />
    <path
      id="path165"
      d="m229.09 132.23c-0.62 0.29-1.3 0.72-1.66 1.44-0.58 0.57-1.15 1.47-1.04 2.55 0.1 1.08 0.75 2.49 1.8 4.07 0.43-0.54 1.08-1.04 1.8-1.22 0.68-0.33 1.58-0.47 2.55-0.29 0.97 0.11 2.16 0.5 3.42 1.19 0.97-1.33 1.37-2.63 1.19-3.89-0.18-1.37-1.08-2.7-2.41-4-0.22 1.01-0.72 1.8-1.37 2.09-0.79 0.36-2.23 0.04-2.92-0.14-0.68-0.4-1.18-0.9-1.36-1.8z"
    />
    <path
      id="path167"
      d="m207.74 131.98c-0.69 0.28-1.19 0.72-1.66 1.44-0.54 0.57-1.22 1.47-1.08 2.55 0.11 1.08 0.72 2.49 1.84 4.07 0.43-0.54 1.08-1.04 1.8-1.22 0.68-0.33 1.58-0.47 2.55-0.29 1.01 0.11 2.09 0.5 3.39 1.19 0.97-1.34 1.37-2.63 1.19-3.89-0.22-1.37-1.01-2.7-2.38-4-0.25 1.01-0.61 1.8-1.37 2.09-0.72 0.36-2.3 0.04-2.95-0.15-0.68-0.39-1.22-0.89-1.33-1.79z"
    />
    <path
      id="path169"
      d="m229.16 111.06c-0.79 0.4-1.44 0.83-1.95 1.69-0.61 0.76-1.4 1.62-1.26 3.03 0.11 1.26 0.87 2.91 2.13 4.82 0.54-0.72 1.26-1.15 2.16-1.44 0.83-0.36 1.83-0.58 3.02-0.36 1.15 0.18 2.49 0.61 4 1.44 1.22-1.58 1.65-3.13 1.44-4.64-0.25-1.66-1.15-3.1-2.85-4.72-0.25 1.22-0.79 2.05-1.62 2.48-0.97 0.29-2.59 0.18-3.45-0.18-0.9-0.46-1.44-1.04-1.62-2.12z"
    />
    <path
      id="path171"
      d="m139.95 45.108l-1.01 7.2c35.43 1.548 64.98 2.736 90.47 3.708 25.27 0.864 37.15 0.828 60.52 1.836 23.36 1.008 57.99 2.592 78.62 4.176 20.38 1.404 31 2.808 43.38 4.896 12.31 1.98 22.47 4.752 29.92 7.632 7.2 2.843 10.33 6.228 13.42 9.755 3.07 3.42 2.56 7.272 4.9 11.124 2.31 3.816 5.26 12.025 8.57 11.845 3.13-0.32 7.81-7.704 10.44-13.249 2.45-5.615 3.67-13.104 4.79-19.691 1.04-6.552 1.76-12.996 1.87-19.476 0.25-7.164 0.18-14.004-0.26-20.88-0.43-6.876-0.68-14.364-2.3-19.944-1.65-5.58-4.97-11.34-7.42-13.212-2.44-1.872-4.96-0.216-7.2 2.088-2.19 2.304-4.32 8.424-5.97 11.592-1.62 3.132-0.94 4.356-3.71 7.2s-3.96 6.948-12.74 9.72c-8.86 2.772-19.48 5.04-39.68 6.732-20.3 1.656-54.39 2.448-80.74 3.24-26.32 0.792-44.75 0.792-75.96 1.404-31.29 0.612-67.29 1.368-109.91 2.304z"
    />
    <path
      id="path173"
      d="m265.77 22.212l-0.65 2.052c-1.69 0.432-3.17 1.116-4.96 2.448-1.84 1.188-4.58 3.024-5.44 5.076-0.97 2.088-0.9 4.932 0.21 7.128 1.08 2.088 2.2 3.96 6.66 5.328 4.47 1.26 10.91 2.052 19.73 2.376 0.26-1.008 0.79-1.872 1.62-2.448 0.8-0.648 1.88-1.152 3.24-1.368l0.22-1.44c-2.74 0-5.83 0.036-9.43 0.108-3.71 0.072-9.07 0.468-12.21 0.072-3.17-0.576-5.4-1.764-6.69-3.168-1.37-1.512-1.62-3.744-1.33-5.328 0.21-1.584 0.97-2.664 2.8-4.068 1.77-1.548 4.25-2.988 7.6-4.716 0.11-0.864 0.18-1.44 0.07-1.872-0.25-0.504-0.57-0.828-0.83-0.828-0.21-0.072-0.47 0.144-0.61 0.648z"
    />
    <polygon
      id="polygon175"
      points="147.65 97.487 183.94 97.487 183.94 108.4 147.65 108.4"
    />
    <path
      id="path177"
      d="m182.32 96.983c-0.68 0.685-1.08 1.584-1.19 3.137-0.18 1.4-0.03 3.99 0.29 5.54 0.29 1.48 0.76 2.59 1.41 3.35h5.72l1.26-0.69c1.66-0.07 2.81-0.43 3.85-0.79 0.83-0.39 1.41-1.08 1.87-1.76 0.44-0.83 1.3-1.84 1.19-2.88-0.18-1.15-0.79-2.7-1.98-3.531-1.22-0.936-2.88-1.332-5.11-1.584l-1.4-0.792h-5.91z"
    />
    <polygon
      id="polygon179"
      points="147.65 114.37 183.94 114.37 183.94 125.28 147.65 125.28"
    />
    <path
      id="path181"
      d="m182.32 113.83c-0.68 0.65-1.08 1.66-1.19 3.17-0.18 1.4-0.03 4 0.29 5.54 0.29 1.48 0.76 2.6 1.41 3.35h5.72l1.26-0.68c1.66-0.07 2.81-0.43 3.85-0.79 0.83-0.51 1.41-1.01 1.87-1.8 0.44-0.87 1.3-1.77 1.19-2.85-0.18-1.11-0.79-2.77-1.98-3.56-1.22-0.94-2.88-1.33-5.11-1.59l-1.4-0.79h-5.91z"
    />
    <path
      id="path183"
      d="m141.39 97.56c-1.76-0.288-3.56-0.216-5.26 0.216-1.83 0.36-3.63 1.08-5.11 2.16-1.62 1.044-2.7 2.374-3.67 4.144-1.01 1.69-1.76 3.78-1.87 6.12-0.18 2.26 0.29 5.22 1.01 7.3 0.54 1.95 1.47 3.35 2.95 4.65 1.51 1.11 3.53 2.02 5.9 2.56 2.27 0.54 4.79 0.72 7.71 0.68l-0.87-11.16c-2.05 0.11-3.63-0.04-4.75-0.29-1.22-0.25-1.98-0.75-2.27-1.37-0.39-0.75-0.25-2.26 0.29-2.88 0.47-0.68 1.73-1.08 2.95-1.18 1.19-0.22 2.52-0.19 4.14 0.1-0.36-3.67-0.75-7.34-1.15-11.05z"
    />
    <path
      id="path185"
      d="m140.71 96.983c-0.9 0.685-1.44 1.584-1.62 3.137-0.33 1.4 0.03 3.99 0.39 5.54 0.36 1.48 1.05 2.59 1.91 3.35h9.47s-1.69-2.92-2.05-5.91c-0.33-2.98 0.68-6.044 0.68-6.044-2.92 0-5.83-0.036-8.78-0.073z"
    />
    <path
      id="path187"
      d="m140.71 113.83c-0.9 0.65-1.44 1.66-1.62 3.17-0.33 1.4 0.03 4 0.39 5.54 0.36 1.48 1.05 2.6 1.91 3.35h9.47s-1.69-2.95-2.05-5.94c-0.33-2.99 0.68-6.01 0.68-6.01-2.92-0.04-5.83-0.07-8.78-0.11z"
    />
    <path
      id="path189"
      d="m205.43 97.56c-1.98-0.288-3.99-0.216-5.9 0.216-1.98 0.36-4.18 1.08-5.76 2.16-1.73 1.044-3.1 2.374-4.1 4.144-1.16 1.69-1.95 3.78-2.09 6.12-0.18 2.26 0.29 5.22 1.11 7.3 0.65 1.95 1.66 3.35 3.32 4.65 1.62 1.11 4.03 2.02 6.66 2.56 2.52 0.54 5.4 0.72 8.64 0.68l-1.01-11.16c-2.27 0.11-4-0.04-5.33-0.29s-2.12-0.75-2.52-1.37c-0.4-0.75-0.29-2.26 0.32-2.88 0.62-0.68 1.91-1.08 3.32-1.18 1.33-0.22 2.84-0.19 4.68 0.1-0.44-3.67-0.87-7.34-1.34-11.05z"
    />
    <path
      id="path191"
      d="m205.87 96.983c-0.69 0.685-1.23 1.584-1.34 3.137-0.18 1.4-0.07 3.99 0.33 5.54 0.32 1.48 0.79 2.59 1.55 3.35h6.44l1.44-0.69c1.8-0.07 3.24-0.43 4.32-0.79 0.97-0.39 1.55-1.08 2.12-1.76 0.54-0.83 1.41-1.84 1.34-2.88-0.22-1.15-0.87-2.7-2.24-3.531-1.4-0.936-3.27-1.332-5.76-1.584l-1.54-0.792h-6.66z"
    />
    <path
      id="path193"
      d="m205.87 113.83c-0.69 0.65-1.23 1.66-1.34 3.17-0.18 1.4-0.07 4 0.33 5.54 0.32 1.48 0.79 2.6 1.55 3.35h6.44l1.44-0.68c1.8-0.07 3.24-0.43 4.32-0.79 0.97-0.51 1.55-1.01 2.12-1.8 0.54-0.87 1.41-1.77 1.34-2.85-0.22-1.11-0.87-2.77-2.24-3.56-1.4-0.94-3.27-1.33-5.76-1.59l-1.54-0.79h-6.66z"
    />
    <polygon
      id="polygon195"
      points="56.862 44.136 361.89 44.136 361.89 55.044 56.862 55.044"
    />
    <polygon
      id="polygon197"
      points="250.22 111.31 360.7 111.31 360.7 122.22 250.22 122.22"
    />
    <path
      id="path199"
      d="m254.43 110.52c0.65 0.65 1.05 1.66 1.19 3.17 0.14 1.44-0.14 3.92-0.32 5.51-0.26 1.47-0.76 2.55-1.37 3.38h-5.73l-1.29-0.72c-1.62-0.07-2.85-0.43-3.82-0.79-0.97-0.4-1.51-1.08-1.91-1.77-0.57-0.86-1.33-1.76-1.15-2.84 0.07-1.12 0.72-2.77 1.95-3.56 1.22-0.94 2.8-1.34 5.14-1.59l1.37-0.79h5.94z"
    />
    <path
      id="path201"
      d="m368.8 44.244c1.84-0.324 4.25-0.18 7.53 0.432 3.13 0.468 8.02 0.864 11.77 3.132 3.78 2.232 7.99 4.824 10.55 10.692 2.34 5.94 4.03 16.272 3.95 24.191-0.21 7.74-1.79 16.236-4.35 22.179-2.56 5.79-5.47 9.75-10.69 12.71-5.4 2.84-12.21 4.35-20.95 4.53l-1.77-10.8c6.63 0.76 11.88-0.07 16.17-2.34 4.28-2.48 7.19-6.91 9.14-11.627 1.66-4.752 2.16-10.548 1.8-16.272-0.29-5.939-1.47-14.003-3.56-18.215-2.34-4.104-5.4-5.184-9.19-6.444-3.77-1.368-7.88-1.908-12.85-1.62 0.8-3.492 1.63-7.02 2.45-10.548z"
    />
    <path
      id="path203"
      d="m368.94 43.632c0.87 0.684 1.48 1.584 1.7 3.132 0.21 1.404-0.11 3.996-0.44 5.544-0.46 1.476-1.07 2.592-1.98 3.348h-10s1.8-2.952 2.16-5.904c0.36-2.988-0.72-6.048-0.72-6.048 3.09 0 6.19-0.036 9.28-0.072z"
    />
    <path
      id="path205"
      d="m368.94 110.74c0.87 0.64 1.48 1.65 1.7 3.16 0.21 1.37-0.11 4.04-0.44 5.51-0.46 1.48-1.07 2.59-1.98 3.35h-10s1.8-2.92 2.16-5.9c0.36-2.99-0.72-6.02-0.72-6.02 3.09-0.03 6.19-0.07 9.28-0.1z"
    />
    <polygon
      id="polygon207"
      points="347.6 54.252 354.19 54.252 354.19 64.512 347.6 64.512"
    />
    <polygon
      id="polygon209"
      points="347.6 101.84 354.19 101.84 354.19 112.1 347.6 112.1"
    />
    <polygon
      id="polygon211"
      points="348.72 64.224 352.53 64.224 352.53 102.67 348.72 102.67"
    />
    <path
      id="path213"
      d="m395.23 109.66c0.5 0.64 1.19 1.15 1.91 1.51 0.64 0.32 1.47 0.5 2.34 0.54 0.79 0.83 0.64 1.83-0.44 3.02-1.11 1.19-3.17 2.56-6.15 4.11 0.07-0.69-0.11-1.19-0.54-1.52-0.44-0.32-1.26-0.47-2.2-0.43l-0.83-0.4-5.18 2.6 0.54 0.97c-0.25 0.18-0.43 0.54-0.54 1.08-0.18 0.5-0.47 1.33-0.29 1.94 0.04 0.54 0.5 0.9 1.12 1.08 0.57-0.03 1.58-0.18 2.73-0.83 2.02 0.8 4.43 0.44 7.24-1.08 2.77-1.73 6.62-4.46 9.47-8.35 2.77-3.92 5.83-10.8 7.23-14.65 1.33-3.996 0.86-8.028 0.69-8.353-0.26-0.18-0.76 3.853-2.34 6.84-1.77 2.813-4.18 6.193-7.67 10.153-0.54-0.54-1.23-1.01-2.06-1.26-0.9-0.33-1.94-0.51-3.13-0.54-0.61 1.19-1.26 2.38-1.9 3.57z"
    />
    <path
      id="path215"
      d="m206.91 47.304c14.29-0.036 10.51-0.072 25.6 0.324 15.15 0.252 53.92 0.936 64.65 1.656 10.44 0.684 14.62 2.484-1.62 2.628-16.63 0.036-71.49-1.98-95.87-2.304-24.26-0.396-28.18 0.036-48.56 0.324-20.7 0.288-72.18 1.548-73.224 1.296-0.684-0.396 46.904-3.024 68.614-3.6 21.67-0.72 45.83-0.36 60.41-0.324z"
    />
    <path
      id="path217"
      d="m296.51 117.22c3.57-0.36 40.43-0.36 44.65 0 3.95 0.32-13.25 1.9-20.67 1.98-7.59-0.08-27.4-1.66-23.98-1.98z"
    />
    <path
      id="path219"
      d="m275.52 103.75c3.57-0.36 40.43-0.36 44.65 0 3.81 0.33-13.18 1.91-20.7 1.98-7.64-0.07-27.33-1.65-23.95-1.98z"
    />
    <path
      id="path221"
      d="m153.38 104.33c1.91-0.18 22.07-0.18 24.37 0 2.09 0.18-7.24 1.01-11.3 1.08-4.22-0.07-14.91-0.9-13.07-1.08z"
    />
    <path
      id="path223"
      d="m152.05 121.75c1.9-0.18 22.06-0.18 24.37 0 2.05 0.11-7.17 1.01-11.27 1.05-4.18-0.04-14.98-0.94-13.1-1.05z"
    />
    <path
      id="path225"
      d="m264.08 76.392c5.56 0 10.08 4.516 10.08 10.08s-4.52 10.08-10.08 10.08c-5.57 0-10.08-4.516-10.08-10.08s4.51-10.08 10.08-10.08zm0.11 1.44c4.71 0 8.53 3.87 8.53 8.64s-3.82 8.64-8.53 8.64-8.53-3.87-8.53-8.64 3.82-8.64 8.53-8.64z"
    />
  </g>
  <metadata>
    <rdf:RDF
      ><cc:Work
        ><dc:format>image/svg+xml</dc:format
        ><dc:type
          rdf:resource="http://purl.org/dc/dcmitype/StillImage"
        /><cc:license
          rdf:resource="http://creativecommons.org/licenses/publicdomain/"
        /><dc:publisher
          ><cc:Agent rdf:about="http://openclipart.org/"
            ><dc:title>Openclipart</dc:title></cc:Agent
          ></dc:publisher
        ></cc:Work
      ><cc:License rdf:about="http://creativecommons.org/licenses/publicdomain/"
        ><cc:permits
          rdf:resource="http://creativecommons.org/ns#Reproduction" /><cc:permits
          rdf:resource="http://creativecommons.org/ns#Distribution" /><cc:permits
          rdf:resource="http://creativecommons.org/ns#DerivativeWorks" /></cc:License
    ></rdf:RDF>
  </metadata>
</svg>
